<svg width="97" height="20" viewBox="0 0 97 20" fill="none" xmlns="http://www.w3.org/2000/svg">
<path fill-rule="evenodd" clip-rule="evenodd" d="M11.1377 0.47107C10.7659 0.62406 10.2975 0.866022 10.0969 1.00889C9.12253 1.7027 8.3911 2.97738 8.34505 4.06181L8.31756 4.70825L8.84067 4.67473C10.4865 4.56924 12.0982 2.78894 12.2155 0.946797C12.2725 0.0512829 12.2174 0.0269301 11.1377 0.47107ZM10.789 5.12056C10.358 5.24027 9.66867 5.46705 9.25696 5.6245L8.50865 5.91082L7.12426 5.44354C5.89782 5.02954 5.64488 4.983 4.90754 5.03581C3.83625 5.11236 2.90529 5.53613 2.06801 6.32796C1.27919 7.07398 0.850723 7.83905 0.538836 9.05863C0.234545 10.2483 0.236956 11.3514 0.546793 12.8722C1.00142 15.1026 2.04197 17.1848 3.45938 18.7C4.61965 19.9404 5.38447 20.0909 7.05169 19.4067C8.19652 18.9369 9.0901 18.9509 10.5408 19.4613C11.4127 19.7681 11.7891 19.8443 12.1493 19.7867C13.2101 19.6171 13.8656 19.0608 15.0188 17.3517C15.6097 16.476 16.3238 15.0296 16.3315 14.6926C16.3333 14.6142 16.2249 14.5153 16.0907 14.4726C15.9566 14.43 15.5307 14.1026 15.1445 13.745C14.1811 12.8531 13.7709 11.9396 13.7708 10.6853C13.7706 9.35569 14.1167 8.53287 15.083 7.56586L15.8415 6.80658L15.4121 6.33121C14.9049 5.76977 13.762 5.18011 12.8523 5.01025C11.988 4.84894 11.7144 4.86365 10.789 5.12056ZM50.3325 10.6759V15.86H51.2367H52.1409V10.6759V5.49188H51.2367H50.3325V10.6759ZM66.7034 6.02258C65.1393 6.44358 64.2238 7.83435 64.5675 9.26707C64.7928 10.206 65.5177 10.8576 67.0607 11.508C68.7417 12.2166 69.1897 12.7984 68.7678 13.7246C68.4167 14.4951 66.7811 14.7223 65.4096 14.1908C65.0488 14.0511 64.7424 13.949 64.7287 13.9641C64.6384 14.0627 64.3326 15.3049 64.3798 15.3814C64.5083 15.5892 65.6371 15.8825 66.5477 15.9446C68.9799 16.1106 70.5697 15.0813 70.6853 13.2658C70.7118 12.8491 70.6711 12.3189 70.5947 12.0877C70.3209 11.2579 69.3918 10.5553 67.7616 9.94534C66.8135 9.59066 66.3669 9.13687 66.3669 8.52853C66.3669 7.62265 67.341 7.15608 68.7055 7.40841C69.0774 7.47713 69.4946 7.59383 69.6327 7.66773C69.7707 7.74164 69.8994 7.78407 69.9185 7.76213C70.0358 7.62759 70.3206 6.38354 70.2502 6.31313C70.0665 6.12988 68.6909 5.85392 67.9992 5.86164C67.5987 5.86622 67.0157 5.93855 66.7034 6.02258ZM26.3568 6.36172C26.2874 6.57957 25.6112 8.68369 24.8543 11.0376C24.0974 13.3915 23.4398 15.4419 23.3929 15.594C23.3084 15.8678 23.3166 15.8701 24.2456 15.8351L25.1836 15.7997L25.6012 14.4434L26.0188 13.0871H27.6039H29.189L29.5945 14.4251C29.8175 15.161 30.0633 15.7874 30.141 15.8172C30.2185 15.847 30.6621 15.8552 31.1268 15.8355L31.9715 15.7997L30.3821 10.917L28.7926 6.0344L27.6379 6.00004L26.4832 5.96568L26.3568 6.36172ZM73.2689 7.20286L72.5154 7.44181V8.09439V8.74698H72.0331H71.5509V9.41006V10.0731H72.0236H72.4962L72.536 12.2733C72.5705 14.1855 72.6072 14.5356 72.8168 14.9479C73.2186 15.7387 73.5793 15.9203 74.7485 15.9203C75.3039 15.9203 75.8057 15.866 75.8635 15.7997C75.9213 15.7334 75.9469 15.4069 75.9201 15.0741L75.8715 14.4691L75.4055 14.5135C75.0316 14.5491 74.8789 14.4972 74.6317 14.2499C74.327 13.9453 74.3238 13.9211 74.3238 12.0075V10.0731H75.1677H76.0116V9.41006V8.74698H75.1677H74.3238V7.84279C74.3238 6.81924 74.3772 6.85155 73.2689 7.20286ZM27.7319 8.05377C27.778 8.26921 28.0263 9.11276 28.284 9.92822C28.5416 10.7438 28.7524 11.4626 28.7524 11.5256C28.7524 11.5907 28.2245 11.6404 27.5339 11.6404C26.5233 11.6404 26.3267 11.6107 26.3819 11.4669C26.6179 10.8523 27.3247 8.4885 27.3846 8.11405C27.4737 7.55791 27.6205 7.53247 27.7319 8.05377ZM35.9256 8.8726C35.6604 9.00269 35.3239 9.24465 35.1779 9.4103C35.0319 9.57595 34.8827 9.71146 34.8464 9.71146C34.8101 9.71146 34.7803 9.49445 34.7803 9.22922V8.74698H33.9235C33.1917 8.74698 33.0774 8.77483 33.1399 8.93771C33.1801 9.04259 33.213 11.294 33.213 13.9409V18.7534H34.1172H35.0214V16.9343V15.1152L35.3801 15.4169C35.8936 15.849 36.5156 16.0207 37.3082 15.9488C38.9718 15.7979 40.0244 14.6292 40.2742 12.6555C40.3625 11.9575 40.1622 10.8206 39.8404 10.1937C39.5536 9.63502 38.9249 9.04452 38.3708 8.81341C37.7378 8.54926 36.5248 8.57868 35.9256 8.8726ZM44.3943 8.93602C44.0791 9.10022 43.754 9.34182 43.672 9.47299C43.4447 9.83708 43.34 9.76028 43.34 9.22922V8.74698H42.5262L41.7125 8.74686L41.7453 13.7502L41.7779 18.7534H42.6796H43.5811V16.9343V15.1152L43.9398 15.4169C44.4533 15.849 45.0754 16.0207 45.8679 15.9488C47.1469 15.8329 48.1794 15.0089 48.6068 13.7633C48.9207 12.8483 48.8886 11.2747 48.5401 10.4951C48.2211 9.78162 47.671 9.17605 47.052 8.85693C46.3813 8.51129 45.1394 8.54818 44.3943 8.93602ZM55.8782 8.78339C55.6461 8.85621 55.1492 9.22126 54.7737 9.59463C53.9689 10.3951 53.7081 11.0878 53.7081 12.4244C53.7081 14.0862 54.423 15.2178 55.7924 15.723C56.7956 16.0933 58.8149 16.0342 59.626 15.6107C59.9025 15.4665 59.6631 14.2481 59.3801 14.3583C58.8983 14.5456 57.8177 14.6685 57.2617 14.5989C56.5118 14.5053 55.9555 14.1841 55.6365 13.6609C55.141 12.8483 55.1246 12.8548 57.777 12.8184L60.158 12.7857L60.141 11.8212C60.1219 10.7317 59.9334 10.1857 59.3456 9.51615C58.7848 8.87755 58.1612 8.62968 57.1441 8.64137C56.6799 8.64668 56.1103 8.71057 55.8782 8.78339ZM79.072 8.81449C78.3678 9.07406 77.6215 9.75667 77.2529 10.4785C76.8342 11.2984 76.74 12.628 77.03 13.6255C77.3065 14.577 78.2258 15.5152 79.1502 15.7897C81.0748 16.3613 82.997 15.571 83.7356 13.9044C84.1322 13.0095 84.1376 11.4776 83.747 10.6157C83.4185 9.89061 82.8732 9.29757 82.2204 8.95519C81.5867 8.62293 79.8078 8.54348 79.072 8.81449ZM88.0973 8.88165C87.8816 9.01981 87.5702 9.35798 87.4052 9.63309L87.1053 10.1334L87.1041 9.4402L87.103 8.74698H86.3194H85.5358V12.3035V15.86H86.44H87.3442V13.8858C87.3442 12.8001 87.3794 11.7359 87.4223 11.521C87.4652 11.3063 87.684 10.9468 87.9085 10.7223C88.2628 10.3681 88.3957 10.3143 88.9154 10.3143H89.5142V9.47034V8.62642L89.0018 8.62847C88.6915 8.62968 88.3348 8.7295 88.0973 8.88165ZM92.3236 8.82474C90.871 9.33929 89.9192 11.3192 90.2482 13.1423C90.4654 14.3464 90.9723 15.0677 91.9712 15.5946C92.5347 15.8919 92.704 15.92 93.9146 15.9178C94.6463 15.9165 95.4773 15.845 95.7684 15.7585L96.2959 15.6014L96.2214 15.0577C96.1224 14.3359 96.0741 14.279 95.6887 14.431C95.5087 14.5019 94.9002 14.5677 94.3366 14.5771C93.4995 14.591 93.2347 14.5488 92.8902 14.3465C92.4239 14.0724 91.9254 13.414 91.9254 13.0718C91.9254 12.8665 92.0909 12.8488 94.3065 12.8184L96.6875 12.7857L96.6744 11.8771C96.6534 10.4235 96.0548 9.34351 94.9997 8.855C94.4064 8.58025 93.0567 8.56506 92.3236 8.82474ZM57.8657 10.0934C58.0485 10.2371 58.2729 10.5338 58.3642 10.7526C58.6866 11.5239 58.6942 11.5198 56.9632 11.5198C55.9662 11.5198 55.396 11.4745 55.396 11.3954C55.396 11.0831 55.7598 10.4545 56.1122 10.1579C56.6117 9.73762 57.3777 9.70941 57.8657 10.0934ZM94.4444 10.1411C94.7488 10.3973 95.0565 11.0418 95.0592 11.4294C95.0596 11.4791 94.3547 11.5198 93.4927 11.5198C92.4957 11.5198 91.9254 11.4745 91.9254 11.3954C91.9254 11.0831 92.2893 10.4545 92.6417 10.1579C93.1707 9.71266 93.9268 9.70567 94.4444 10.1411ZM37.3954 10.1873C38.0707 10.4939 38.4258 11.1747 38.4333 12.1781C38.4401 13.0858 38.2488 13.6764 37.8126 14.0944C36.9259 14.9438 35.5771 14.6586 35.1501 13.5314C35.0793 13.3447 35.0226 12.8022 35.0241 12.3258C35.0277 11.1349 35.3185 10.507 36.012 10.1922C36.6518 9.90194 36.7659 9.90146 37.3954 10.1873ZM46.1418 10.2734C46.9714 10.6912 47.2852 12.4531 46.7333 13.5933C46.0893 14.9237 44.2999 14.9356 43.7474 13.6132C43.5326 13.0992 43.5333 11.6265 43.7487 11.1111C44.1716 10.0988 45.1296 9.76354 46.1418 10.2734ZM81.4188 10.2573C81.9512 10.7053 82.1983 11.4581 82.1382 12.4479C82.05 13.8953 81.4482 14.6529 80.3861 14.6539C79.6867 14.6545 79.0947 14.132 78.8461 13.295C78.6278 12.5602 78.6221 12.33 78.8007 11.4956C78.9018 11.0241 79.056 10.7384 79.3893 10.4047C79.792 10.0018 79.9072 9.95257 80.4489 9.95257C80.9231 9.95257 81.1362 10.0196 81.4188 10.2573Z" fill="black"/>
</svg>
