<svg width="136" height="90" viewBox="0 0 136 90" fill="none" xmlns="http://www.w3.org/2000/svg">
<path fill-rule="evenodd" clip-rule="evenodd" d="M16.6945 33.2254C16.4214 33.519 16.2644 33.9707 16.2644 34.5577V55.4383C16.2644 56.0253 16.4214 56.477 16.7047 56.7604L16.7787 56.8229L28.4785 45.1231V44.8602L16.7685 33.1629L16.6945 33.2254Z" fill="url(#paint0_linear_20_37)"/>
<path fill-rule="evenodd" clip-rule="evenodd" d="M32.3708 49.0383L28.4683 45.1345V44.8614L32.372 40.9577L32.4563 41.01L37.0734 43.6338C38.3955 44.3791 38.3955 45.6067 37.0734 46.3622L32.4563 48.986C32.455 48.986 32.3708 49.0383 32.3708 49.0383Z" fill="url(#paint1_linear_20_37)"/>
<path fill-rule="evenodd" clip-rule="evenodd" d="M32.455 48.986L28.4683 44.998L16.6945 56.7719C17.1245 57.2338 17.8481 57.2862 18.6572 56.8344L32.455 48.986Z" fill="url(#paint2_linear_20_37)"/>
<path fill-rule="evenodd" clip-rule="evenodd" d="M32.455 41.0113L18.6572 33.1731C17.8494 32.7111 17.1245 32.7737 16.6945 33.2356L28.467 44.998L32.455 41.0113Z" fill="url(#paint3_linear_20_37)"/>
<path opacity="0.2" fill-rule="evenodd" clip-rule="evenodd" d="M32.3708 48.9018L18.6674 56.6876C17.9017 57.1279 17.219 57.0973 16.7787 56.6978L16.7047 56.7718L16.7787 56.8344C17.219 57.2325 17.9017 57.2644 18.6674 56.8242L32.4653 48.986L32.3708 48.9018Z" fill="black"/>
<path opacity="0.12" fill-rule="evenodd" clip-rule="evenodd" d="M37.0722 46.2257L32.3606 48.9018L32.4448 48.986L37.062 46.3622C37.723 45.9845 38.0484 45.4919 38.0484 44.998C38.0063 45.4498 37.6707 45.8798 37.0722 46.2257Z" fill="black"/>
<path opacity="0.25" fill-rule="evenodd" clip-rule="evenodd" d="M18.6572 33.3097L37.0722 43.7716C37.6707 44.1072 38.0063 44.5475 38.0586 44.9993C38.0586 44.5067 37.7332 44.0128 37.0722 43.6351L18.6572 33.1731C17.3351 32.4176 16.2644 33.0468 16.2644 34.5577V34.6943C16.2644 33.1833 17.3351 32.5644 18.6572 33.3097Z" fill="white"/>
<path fill-rule="evenodd" clip-rule="evenodd" d="M42.5533 44.3357C42.5533 40.9909 45.3647 38.2675 48.7095 38.2675C50.5587 38.2675 51.8744 38.9937 52.8672 39.9393L51.6983 41.1083C50.9887 40.4421 50.0265 39.9253 48.7082 39.9253C46.2657 39.9253 44.3565 41.8918 44.3565 44.3344C44.3565 46.777 46.2657 48.7461 48.707 48.7461C50.2907 48.7461 51.1917 48.1106 51.7698 47.5312C52.2432 47.0577 52.5533 46.3775 52.6733 45.4447H48.7095V43.7908H54.2889C54.3476 44.0868 54.3782 44.4416 54.3782 44.8257C54.3782 46.0674 54.0375 47.6078 52.9413 48.704C51.8744 49.8142 50.514 50.4064 48.7082 50.4064C45.3622 50.4064 42.5508 47.6856 42.5508 44.3382L42.5533 44.3357ZM58.8882 42.5899C56.7276 42.5899 54.964 44.2336 54.964 46.4962C54.964 48.7474 56.7264 50.4025 58.8882 50.4025C61.05 50.4025 62.8098 48.7448 62.8098 46.4949C62.8098 44.2323 61.0487 42.5886 58.8882 42.5899ZM58.8882 48.866C57.7052 48.866 56.683 47.8898 56.683 46.4975C56.683 45.0912 57.7039 44.1289 58.8882 44.1289C60.0712 44.1289 61.0921 45.0899 61.0921 46.4975C61.0921 47.8885 60.0724 48.866 58.8882 48.866ZM67.4448 42.5899C65.2843 42.5899 63.5232 44.2336 63.5232 46.4962C63.5232 48.7474 65.2843 50.4025 67.4448 50.4025C69.6054 50.4025 71.3664 48.7448 71.3664 46.4949C71.3664 44.2323 69.6066 42.5886 67.4448 42.5899ZM67.4448 48.866C66.2618 48.866 65.2396 47.8898 65.2396 46.4975C65.2396 45.0912 66.2605 44.1289 67.4448 44.1289C68.6278 44.1289 69.65 45.0899 69.65 46.4975C69.65 47.8885 68.6278 48.866 67.4448 48.866ZM77.9463 42.8273V43.4628H77.8876C77.5035 43.0021 76.7633 42.5886 75.8317 42.5886C73.8779 42.5886 72.0849 44.3063 72.0849 46.5128C72.0849 48.7014 73.8767 50.4051 75.8317 50.4051C76.7633 50.4051 77.5035 49.9916 77.8876 49.5182H77.9463V50.0797C77.9463 51.5741 77.1474 52.3742 75.8598 52.3742C74.8083 52.3742 74.1574 51.6187 73.8907 50.9845L72.395 51.606C72.8238 52.6409 73.9647 53.9145 75.8585 53.9145C77.8698 53.9145 79.5722 52.729 79.5722 49.8436V42.826L77.9463 42.8273ZM75.9785 48.866C74.7955 48.866 73.8014 47.8732 73.8014 46.5128C73.8014 45.1371 74.7942 44.1302 75.9785 44.1302C77.1475 44.1302 78.065 45.1358 78.065 46.5128C78.0663 47.8732 77.1487 48.866 75.9785 48.866ZM80.7577 38.6823H82.4754V50.1677H80.7577V38.6823ZM87.1832 48.866C86.3103 48.866 85.6875 48.4653 85.2906 47.683L90.5152 45.52L90.3353 45.0759C90.0111 44.2042 89.0183 42.5899 86.9905 42.5899C84.978 42.5899 83.3049 44.1736 83.3049 46.4975C83.3049 48.6861 84.9627 50.4038 87.1832 50.4038C88.9749 50.4038 90.0111 49.3102 90.4399 48.6721L89.1076 47.7851C88.6622 48.4373 88.0548 48.8673 87.1832 48.866ZM87.0492 44.0996C87.7294 44.0996 88.3062 44.4403 88.4989 44.9278L85.0048 46.3788C84.9614 44.8691 86.175 44.0996 87.0492 44.0996Z" fill="#808285"/>
<path fill-rule="evenodd" clip-rule="evenodd" d="M98.0522 38.6823H93.9456V50.1677H95.6594V45.8173H98.0535C99.9537 45.8173 101.822 44.4416 101.822 42.2492C101.822 40.0606 99.955 38.6836 98.0561 38.6836L98.0522 38.6823ZM98.0969 44.2183H95.6594V40.2801H98.0969C99.3782 40.2801 100.108 41.3431 100.108 42.2492C100.108 43.1399 99.3782 44.2183 98.0969 44.2183ZM104.48 50.1677V38.6823H102.766V50.1677H104.48ZM112.179 50.1473V45.7446C112.179 43.7053 110.656 42.5682 108.689 42.5682C107.45 42.5682 106.165 43.1157 105.633 44.3268L107.154 44.961C107.479 44.3268 108.084 44.1187 108.721 44.1187C109.607 44.1187 110.508 44.6509 110.522 45.5978V45.7165C110.211 45.5391 109.548 45.2724 108.734 45.2724C107.094 45.2724 105.425 46.1734 105.425 47.8579C105.425 49.3957 106.77 50.3847 108.277 50.3847C109.43 50.3847 110.065 49.8678 110.463 49.2629H110.522V50.1499H112.178L112.179 50.1473ZM108.485 48.8635C107.923 48.8635 107.14 48.5828 107.14 47.8898C107.14 47.0029 108.116 46.6609 108.958 46.6609C109.712 46.6609 110.066 46.8229 110.525 47.045C110.394 48.0761 109.522 48.8507 108.485 48.8635ZM118.207 42.8196L116.241 47.7979H116.183L114.143 42.8196H112.297L115.354 49.7798L113.61 53.6504H115.398L120.111 42.8196H118.207Z" fill="#808285"/>
<defs>
<linearGradient id="paint0_linear_20_37" x1="27.4279" y1="34.3333" x2="8.68683" y2="39.3269" gradientUnits="userSpaceOnUse">
<stop stop-color="#00A0FF"/>
<stop offset="0.007" stop-color="#00A1FF"/>
<stop offset="0.26" stop-color="#00BEFF"/>
<stop offset="0.512" stop-color="#00D2FF"/>
<stop offset="0.76" stop-color="#00DFFF"/>
<stop offset="1" stop-color="#00E3FF"/>
</linearGradient>
<linearGradient id="paint1_linear_20_37" x1="38.7938" y1="44.9986" x2="15.943" y2="44.9986" gradientUnits="userSpaceOnUse">
<stop stop-color="#FFE000"/>
<stop offset="0.409" stop-color="#FFBD00"/>
<stop offset="0.775" stop-color="#FFA500"/>
<stop offset="1" stop-color="#FF9C00"/>
</linearGradient>
<linearGradient id="paint2_linear_20_37" x1="30.2872" y1="47.1675" x2="15.2417" y2="72.4899" gradientUnits="userSpaceOnUse">
<stop stop-color="#FF3A44"/>
<stop offset="1" stop-color="#C31162"/>
</linearGradient>
<linearGradient id="paint3_linear_20_37" x1="13.7307" y1="26.2796" x2="20.4429" y2="37.589" gradientUnits="userSpaceOnUse">
<stop stop-color="#32A071"/>
<stop offset="0.069" stop-color="#2DA771"/>
<stop offset="0.476" stop-color="#15CF74"/>
<stop offset="0.801" stop-color="#06E775"/>
<stop offset="1" stop-color="#00F076"/>
</linearGradient>
</defs>
</svg>
